<?xml version="1.0" encoding="UTF-8" standalone="no"?>
<!DOCTYPE svg PUBLIC "-//W3C//DTD SVG 1.1//EN" "http://www.w3.org/Graphics/SVG/1.1/DTD/svg11.dtd">
<svg width="100%" height="100%" viewBox="0 0 540 540" version="1.1" xmlns="http://www.w3.org/2000/svg" xmlns:xlink="http://www.w3.org/1999/xlink" xml:space="preserve" xmlns:serif="http://www.serif.com/" style="fill-rule:evenodd;clip-rule:evenodd;stroke-linejoin:round;stroke-miterlimit:2;">
    <g transform="matrix(0.5,0,0,0.5,0,0)">
        <g transform="matrix(1.70213,0,0,1.57377,-235.532,-332.852)">
            <rect x="138.375" y="211.5" width="634.5" height="686.25" style="fill:url(#_Linear1);"/>
        </g>
        <g transform="matrix(1.78704,0,0,1.04839,-247.606,-378.624)">
            <ellipse cx="463.264" cy="478.463" rx="243" ry="279" style="fill:url(#_Radial2);"/>
        </g>
        <g transform="matrix(0.555023,0.831835,-0.831835,0.555023,819.433,-173.574)">
            <path d="M1268.79,155.992L1080,139.117C593.791,95.155 430.715,1039.05 -124.875,1130.57L465.38,1295.61L1268.79,155.992Z" style="fill:url(#_Linear3);"/>
        </g>
        <g transform="matrix(1.78704,0,0,1.04839,-660.341,140.928)">
            <ellipse cx="463.264" cy="478.463" rx="243" ry="279" style="fill:url(#_Radial4);"/>
        </g>
        <path d="M1268.79,155.992L1080,139.117C593.791,95.155 430.715,1039.05 -124.875,1130.57L1105.88,1220.64L1268.79,155.992Z" style="fill:url(#_Linear5);"/>
        <g transform="matrix(1,0,0,1,51.75,121.5)">
            <path d="M1138.5,756.742C1105.4,794.039 1206.39,553.05 897.75,296.617C411.541,252.655 232.692,773.552 -322.898,865.069L1105.88,1220.64L1138.5,756.742Z" style="fill:url(#_Linear6);"/>
        </g>
        <rect x="-0" y="0" width="1080" height="1080" style="fill-opacity:0.27;"/>
    </g>
    <defs>
        <linearGradient id="_Linear1" x1="0" y1="0" x2="1" y2="0" gradientUnits="userSpaceOnUse" gradientTransform="matrix(634.5,0,0,686.25,138.375,554.625)"><stop offset="0" style="stop-color:rgb(101,101,101);stop-opacity:1"/><stop offset="1" style="stop-color:rgb(37,37,37);stop-opacity:1"/></linearGradient>
        <radialGradient id="_Radial2" cx="0" cy="0" r="1" gradientUnits="userSpaceOnUse" gradientTransform="matrix(-192.664,96.5769,-78.1071,-238.223,463.264,478.463)"><stop offset="0" style="stop-color:rgb(124,123,122);stop-opacity:0.41"/><stop offset="0.49" style="stop-color:rgb(170,169,169);stop-opacity:0.1"/><stop offset="1" style="stop-color:rgb(184,184,184);stop-opacity:0"/></radialGradient>
        <linearGradient id="_Linear3" x1="0" y1="0" x2="1" y2="0" gradientUnits="userSpaceOnUse" gradientTransform="matrix(758.25,0,0,735.75,190.125,567.742)"><stop offset="0" style="stop-color:rgb(101,101,101);stop-opacity:1"/><stop offset="1" style="stop-color:rgb(37,37,37);stop-opacity:1"/></linearGradient>
        <radialGradient id="_Radial4" cx="0" cy="0" r="1" gradientUnits="userSpaceOnUse" gradientTransform="matrix(-192.664,96.5769,-78.1071,-238.223,463.264,478.463)"><stop offset="0" style="stop-color:rgb(60,67,82);stop-opacity:0.41"/><stop offset="1" style="stop-color:rgb(97,97,97);stop-opacity:0"/></radialGradient>
        <linearGradient id="_Linear5" x1="0" y1="0" x2="1" y2="0" gradientUnits="userSpaceOnUse" gradientTransform="matrix(758.25,0,0,735.75,190.125,567.742)"><stop offset="0" style="stop-color:rgb(101,101,101);stop-opacity:1"/><stop offset="1" style="stop-color:rgb(37,37,37);stop-opacity:1"/></linearGradient>
        <linearGradient id="_Linear6" x1="0" y1="0" x2="1" y2="0" gradientUnits="userSpaceOnUse" gradientTransform="matrix(758.25,0,0,735.75,190.125,567.742)"><stop offset="0" style="stop-color:rgb(101,101,101);stop-opacity:1"/><stop offset="1" style="stop-color:rgb(37,37,37);stop-opacity:1"/></linearGradient>
    </defs>
</svg>
